<svg xmlns="http://www.w3.org/2000/svg" viewBox="0 0 1440 240" preserveAspectRatio="none">
  <defs>
    <linearGradient id="g1" x1="0" y1="0" x2="1" y2="0">
      <stop offset="0%" stop-color="#f59e0b"/>
      <stop offset="35%" stop-color="#10b981"/>
      <stop offset="70%" stop-color="#3b82f6"/>
      <stop offset="100%" stop-color="#a855f7"/>
    </linearGradient>
    <linearGradient id="g2" x1="0" y1="0" x2="0" y2="1">
      <stop offset="0%" stop-color="rgba(255,255,255,0.20)"/>
      <stop offset="100%" stop-color="rgba(255,255,255,0)"/>
    </linearGradient>
    <filter id="blur" x="-10%" y="-50%" width="120%" height="200%">
      <feGaussianBlur stdDeviation="10"/>
    </filter>
  </defs>

  <rect width="1440" height="240" fill="url(#g1)"/>

  <path d="M0,160 C180,220 360,100 540,140 C720,180 900,240 1080,190 C1260,140 1350,90 1440,120 L1440,240 L0,240 Z" fill="url(#g2)" opacity="0.9"/>
  <path d="M0,140 C220,40 440,210 660,150 C880,90 1100,10 1440,90 L1440,240 L0,240 Z" fill="#000" opacity="0.10" filter="url(#blur)"/>

  <circle cx="220" cy="80" r="54" fill="#fff" opacity="0.18"/>
  <circle cx="520" cy="40" r="32" fill="#fff" opacity="0.14"/>
  <circle cx="980" cy="70" r="46" fill="#fff" opacity="0.14"/>
  <circle cx="1240" cy="50" r="28" fill="#fff" opacity="0.12"/>
</svg>
